<svg width="76" height="54" viewBox="0 0 76 54" fill="none" xmlns="http://www.w3.org/2000/svg">
<path d="M18.4997 14.0834C14.4605 14.0834 11.1768 17.3671 11.1768 21.4063C11.1768 25.3684 14.2755 28.575 18.3147 28.7138C18.438 28.6984 18.5613 28.6984 18.6538 28.7138C18.6847 28.7138 18.7001 28.7138 18.7309 28.7138C18.7463 28.7138 18.7463 28.7138 18.7618 28.7138C22.7084 28.575 25.8072 25.3684 25.8226 21.4063C25.8226 17.3671 22.5388 14.0834 18.4997 14.0834Z" fill="#5B36DD"/>
<path d="M26.3315 32.8144C22.0302 29.9469 15.0157 29.9469 10.6836 32.8144C8.72565 34.1249 7.64648 35.8978 7.64648 37.794C7.64648 39.6903 8.72565 41.4478 10.6682 42.7428C12.8265 44.1919 15.6632 44.9165 18.4998 44.9165C21.3365 44.9165 24.1732 44.1919 26.3315 42.7428C28.274 41.4324 29.3532 39.6749 29.3532 37.7632C29.3377 35.8669 28.274 34.1094 26.3315 32.8144Z" fill="#5B36DD"/>
<path d="M57.4997 14.0834C53.4605 14.0834 50.1768 17.3671 50.1768 21.4063C50.1768 25.3684 53.2755 28.575 57.3147 28.7138C57.438 28.6984 57.5613 28.6984 57.6538 28.7138C57.6847 28.7138 57.7001 28.7138 57.7309 28.7138C57.7463 28.7138 57.7463 28.7138 57.7618 28.7138C61.7084 28.575 64.8072 25.3684 64.8226 21.4063C64.8226 17.3671 61.5388 14.0834 57.4997 14.0834Z" fill="#5B36DD"/>
<path d="M65.3315 32.8144C61.0302 29.9469 54.0157 29.9469 49.6836 32.8144C47.7257 34.1249 46.6465 35.8978 46.6465 37.794C46.6465 39.6903 47.7257 41.4478 49.6682 42.7428C51.8265 44.1919 54.6632 44.9165 57.4998 44.9165C60.3365 44.9165 63.1732 44.1919 65.3315 42.7428C67.274 41.4324 68.3532 39.6749 68.3532 37.7632C68.3377 35.8669 67.274 34.1094 65.3315 32.8144Z" fill="#5B36DD"/>
<g filter="url(#filter0_d_14_198)">
<path d="M38.9997 4.33337C33.323 4.33337 28.708 8.94837 28.708 14.625C28.708 20.1934 33.063 24.7 38.7397 24.895C38.913 24.8734 39.0863 24.8734 39.2163 24.895C39.2597 24.895 39.2813 24.895 39.3247 24.895C39.3463 24.895 39.3463 24.895 39.368 24.895C44.9147 24.7 49.2697 20.1934 49.2913 14.625C49.2913 8.94837 44.6763 4.33337 38.9997 4.33337Z" fill="url(#paint0_linear_14_198)"/>
<path d="M50.0061 30.6581C43.9611 26.6281 34.1028 26.6281 28.0144 30.6581C25.2628 32.4998 23.7461 34.9915 23.7461 37.6565C23.7461 40.3215 25.2628 42.7915 27.9928 44.6115C31.0261 46.6481 35.0128 47.6665 38.9994 47.6665C42.9861 47.6665 46.9728 46.6481 50.0061 44.6115C52.7361 42.7698 54.2528 40.2998 54.2528 37.6131C54.2311 34.9481 52.7361 32.4781 50.0061 30.6581Z" fill="url(#paint1_linear_14_198)"/>
</g>
<defs>
<filter id="filter0_d_14_198" x="9" y="-2" width="60" height="60" filterUnits="userSpaceOnUse" color-interpolation-filters="sRGB">
<feFlood flood-opacity="0" result="BackgroundImageFix"/>
<feColorMatrix in="SourceAlpha" type="matrix" values="0 0 0 0 0 0 0 0 0 0 0 0 0 0 0 0 0 0 127 0" result="hardAlpha"/>
<feOffset dy="2"/>
<feGaussianBlur stdDeviation="2"/>
<feComposite in2="hardAlpha" operator="out"/>
<feColorMatrix type="matrix" values="0 0 0 0 0 0 0 0 0 0 0 0 0 0 0 0 0 0 0.15 0"/>
<feBlend mode="normal" in2="BackgroundImageFix" result="effect1_dropShadow_14_198"/>
<feBlend mode="normal" in="SourceGraphic" in2="effect1_dropShadow_14_198" result="shape"/>
</filter>
<linearGradient id="paint0_linear_14_198" x1="47.4617" y1="24.895" x2="26.3127" y2="9.32208" gradientUnits="userSpaceOnUse">
<stop stop-color="#6152FF"/>
<stop offset="1" stop-color="#9350FF"/>
</linearGradient>
<linearGradient id="paint1_linear_14_198" x1="51.5411" y1="47.6665" x2="30.1039" y2="23.6512" gradientUnits="userSpaceOnUse">
<stop stop-color="#6152FF"/>
<stop offset="1" stop-color="#9350FF"/>
</linearGradient>
</defs>
</svg>
