<svg width="150" height="45" viewBox="0 0 150 45" fill="none" xmlns="http://www.w3.org/2000/svg">
<g filter="url(#filter0_di_22_985)">
<path d="M4 37C4 19.3269 18.3269 5 36 5V37H4Z" fill="url(#paint0_linear_22_985)" shape-rendering="crispEdges"/>
</g>
<path d="M62.4628 20.7857C62.4628 21.7396 62.2754 22.6425 61.9006 23.4943C61.5372 24.3347 61.0375 25.0786 60.4015 25.7259C59.7769 26.3619 59.0387 26.8673 58.1869 27.2421C57.3351 27.6168 56.4322 27.8042 55.4783 27.8042H45.7852V24.346H55.4783C55.9666 24.346 56.4266 24.2495 56.8581 24.0564C57.2897 23.8634 57.6645 23.6078 57.9825 23.2899C58.3005 22.9605 58.5503 22.58 58.732 22.1485C58.9137 21.7169 59.0046 21.2626 59.0046 20.7857C59.0046 20.2973 58.9137 19.843 58.732 19.4228C58.5503 18.9913 58.3005 18.6165 57.9825 18.2985C57.6645 17.9805 57.2897 17.7307 56.8581 17.5489C56.4266 17.3559 55.9666 17.2593 55.4783 17.2593H43.9624V33H40.5042V13.8182H55.4783C56.4322 13.8182 57.3351 14.0056 58.1869 14.3804C59.0387 14.7438 59.7769 15.2435 60.4015 15.8795C61.0375 16.5041 61.5372 17.2423 61.9006 18.0941C62.2754 18.9345 62.4628 19.8317 62.4628 20.7857ZM84.0465 33H65.6824V13.8182H69.1747V29.5078H84.0465V33ZM108.969 33H105.477V27.7361H92.0361V24.1757H105.477V17.2593H96.3972C95.5454 17.2593 94.7447 17.424 93.9952 17.7534C93.2456 18.0714 92.5926 18.5086 92.0361 19.0651C91.4796 19.6216 91.0367 20.2746 90.7074 21.0242C90.3894 21.7623 90.2304 22.5573 90.2304 23.4091V33H86.7041V23.4091C86.7041 22.069 86.9596 20.814 87.4706 19.6443C87.9817 18.4745 88.6745 17.4524 89.549 16.5779C90.4234 15.7034 91.4512 15.0164 92.6324 14.5166C93.8135 14.0056 95.0684 13.7501 96.3972 13.7501H108.969V33ZM135.289 27.3443C135.289 28.1279 135.101 28.8661 134.727 29.5589C134.363 30.2403 133.864 30.8365 133.228 31.3476C132.603 31.8586 131.865 32.2618 131.013 32.5571C130.161 32.8524 129.258 33 128.304 33H113.296V29.5078H128.304C128.781 29.5078 129.23 29.4566 129.65 29.3544C130.082 29.2409 130.457 29.0875 130.774 28.8945C131.092 28.6901 131.342 28.4572 131.524 28.196C131.706 27.9348 131.797 27.6509 131.797 27.3443V26.4755H120.247C119.293 26.4755 118.39 26.2938 117.538 25.9303C116.698 25.5556 115.959 25.0559 115.323 24.4312C114.699 23.7952 114.205 23.057 113.841 22.2166C113.478 21.3649 113.296 20.4563 113.296 19.491V13.8182H116.754V19.491C116.754 19.9793 116.845 20.4393 117.027 20.8708C117.209 21.291 117.459 21.6601 117.777 21.9781C118.095 22.2848 118.464 22.5289 118.884 22.7107C119.315 22.8924 119.77 22.9832 120.247 22.9832H131.797V13.8182H135.289V27.3443ZM144.778 30.3766C144.778 30.74 144.704 31.0807 144.556 31.3987C144.42 31.7167 144.232 31.9949 143.994 32.2334C143.755 32.4719 143.477 32.6593 143.159 32.7956C142.841 32.9319 142.506 33 142.154 33C141.791 33 141.45 32.9319 141.132 32.7956C140.825 32.6593 140.553 32.4719 140.314 32.2334C140.076 31.9949 139.888 31.7167 139.752 31.3987C139.616 31.0807 139.548 30.74 139.548 30.3766C139.548 30.0245 139.616 29.6895 139.752 29.3715C139.888 29.0535 140.076 28.7752 140.314 28.5367C140.553 28.2982 140.825 28.1109 141.132 27.9746C141.45 27.8383 141.791 27.7701 142.154 27.7701C142.506 27.7701 142.841 27.8383 143.159 27.9746C143.477 28.1109 143.755 28.2982 143.994 28.5367C144.232 28.7752 144.42 29.0535 144.556 29.3715C144.704 29.6895 144.778 30.0245 144.778 30.3766Z" fill="white"/>
<rect x="18" y="30" width="23" height="3" fill="url(#paint1_linear_22_985)"/>
<defs>
<filter id="filter0_di_22_985" x="0" y="5" width="40" height="40" filterUnits="userSpaceOnUse" color-interpolation-filters="sRGB">
<feFlood flood-opacity="0" result="BackgroundImageFix"/>
<feColorMatrix in="SourceAlpha" type="matrix" values="0 0 0 0 0 0 0 0 0 0 0 0 0 0 0 0 0 0 127 0" result="hardAlpha"/>
<feOffset dy="4"/>
<feGaussianBlur stdDeviation="2"/>
<feComposite in2="hardAlpha" operator="out"/>
<feColorMatrix type="matrix" values="0 0 0 0 0 0 0 0 0 0 0 0 0 0 0 0 0 0 0.25 0"/>
<feBlend mode="normal" in2="BackgroundImageFix" result="effect1_dropShadow_22_985"/>
<feBlend mode="normal" in="SourceGraphic" in2="effect1_dropShadow_22_985" result="shape"/>
<feColorMatrix in="SourceAlpha" type="matrix" values="0 0 0 0 0 0 0 0 0 0 0 0 0 0 0 0 0 0 127 0" result="hardAlpha"/>
<feOffset dy="4"/>
<feGaussianBlur stdDeviation="2"/>
<feComposite in2="hardAlpha" operator="arithmetic" k2="-1" k3="1"/>
<feColorMatrix type="matrix" values="0 0 0 0 0 0 0 0 0 0 0 0 0 0 0 0 0 0 0.1 0"/>
<feBlend mode="normal" in2="shape" result="effect2_innerShadow_22_985"/>
</filter>
<linearGradient id="paint0_linear_22_985" x1="33.5" y1="-22" x2="25.5" y2="35.5" gradientUnits="userSpaceOnUse">
<stop stop-color="#FFC451"/>
<stop offset="0.640625" stop-color="#693BFF"/>
<stop offset="1" stop-color="#5C31E7" stop-opacity="0.61"/>
</linearGradient>
<linearGradient id="paint1_linear_22_985" x1="40.2581" y1="31" x2="18" y2="31" gradientUnits="userSpaceOnUse">
<stop stop-color="white"/>
<stop offset="1" stop-color="white" stop-opacity="0"/>
</linearGradient>
</defs>
</svg>
